<mxfile host="app.diagrams.net" modified="2023-09-19T23:27:22.263Z" agent="Mozilla/5.0 (X11; Linux x86_64) AppleWebKit/537.36 (KHTML, like Gecko) Chrome/117.0.0.0 Safari/537.36" etag="Emtjk6LQ3naVSoFeB_3A" version="21.7.5" type="github">
  <diagram name="Page-1" id="Px1TQH4I4e_gSv_pm16Q">
    <mxGraphModel dx="1707" dy="522" grid="1" gridSize="10" guides="1" tooltips="1" connect="1" arrows="1" fold="1" page="1" pageScale="1" pageWidth="827" pageHeight="1169" math="0" shadow="0">
      <root>
        <mxCell id="0" />
        <mxCell id="1" parent="0" />
        <mxCell id="L8iOqvPrXSVHJlq4Wik0-1" value="" style="rounded=0;whiteSpace=wrap;html=1;fillColor=#dae8fc;strokeColor=#6c8ebf;" vertex="1" parent="1">
          <mxGeometry x="-10" y="60" width="830" height="430" as="geometry" />
        </mxCell>
        <mxCell id="L8iOqvPrXSVHJlq4Wik0-2" value="Componente (Administrator Haber Slug - JavaFX)" style="text;html=1;align=center;verticalAlign=middle;resizable=0;points=[];autosize=1;strokeColor=none;fillColor=none;rotation=-90;" vertex="1" parent="1">
          <mxGeometry x="-130" y="250" width="290" height="30" as="geometry" />
        </mxCell>
        <mxCell id="L8iOqvPrXSVHJlq4Wik0-3" value="" style="rounded=0;whiteSpace=wrap;html=1;" vertex="1" parent="1">
          <mxGeometry x="30" y="80" width="120" height="390" as="geometry" />
        </mxCell>
        <mxCell id="L8iOqvPrXSVHJlq4Wik0-4" value="Usuario" style="text;html=1;align=center;verticalAlign=middle;resizable=0;points=[];autosize=1;strokeColor=none;fillColor=none;" vertex="1" parent="1">
          <mxGeometry x="60" y="90" width="60" height="30" as="geometry" />
        </mxCell>
      </root>
    </mxGraphModel>
  </diagram>
</mxfile>
